Coordinates
version=1
nRows=17
nColumns=36
inDegrees=yes

Units are S.I. units (second, meters, Newtons, ...)
If the header above contains a line with 'inDegrees', this indicates whether rotational values are in degrees (yes) or radians (no).

endheader
time	pelvis_tilt	pelvis_list	pelvis_rotation	pelvis_tx	pelvis_ty	pelvis_tz	hip_flexion_r	hip_adduction_r	hip_rotation_r	knee_angle_r	knee_angle_r_beta	ankle_angle_r	subtalar_angle_r	mtp_angle_r	hip_flexion_l	hip_adduction_l	hip_rotation_l	knee_angle_l	knee_angle_l_beta	ankle_angle_l	subtalar_angle_l	mtp_angle_l	lumbar_extension	lumbar_bending	lumbar_rotation	arm_flex_r	arm_add_r	arm_rot_r	elbow_flex_r	pro_sup_r	arm_flex_l	arm_add_l	arm_rot_l	elbow_flex_l	pro_sup_l
      1.68333330	      2.24262331	     12.15917969	      8.89690907	     -0.02842878	      1.24240317	      0.10955293	    -12.08813232	    -12.35474703	      4.18470342	      0.14917179	      0.00260354	     16.63500002	     -1.15804746	     -7.49999987	     -5.11921455	      8.42030957	     21.29571700	      0.36147820	      0.00630898	    -22.05087757	    -34.61490478	     -7.49999987	    -20.06994000	    -15.94001588	      4.06598945	      1.35409436	      0.10068017	      3.89454601	     27.48305711	     74.77125032	     21.78178318	     -8.90663550	     49.37368221	     18.74657006	     68.45144875
      1.70000000	      2.23441434	     12.17211417	      8.89655689	     -0.02770604	      1.24149710	      0.10865290	    -12.10389733	    -12.37190405	      4.24396536	      0.14985255	      0.00261542	     16.64018222	     -1.20737245	     -7.49999987	     -5.13293758	      8.44171880	     21.32351529	      0.36012710	      0.00628540	    -22.06978775	    -34.61345451	     -7.49999987	    -20.05812644	    -15.93341463	      4.17375480	      1.22563544	      0.19714571	      2.82501595	     27.53855618	     78.04723972	     21.90185425	     -8.87638304	     50.01396669	     18.58579811	     70.55383263
      1.71666670	      2.16394550	     12.15513822	      8.83947419	     -0.03027385	      1.23968334	      0.10918633	    -11.96498396	    -12.40399699	      4.43197329	      0.15090572	      0.00263380	     16.63964154	     -1.35099798	     -7.49999987	     -5.03721671	      8.45119198	     21.30827425	      0.35875130	      0.00626139	    -22.00384242	    -34.61412478	     -7.49999987	    -20.02061240	    -15.90937933	      4.11981483	      1.26431846	      0.17910263	      2.97556344	     27.54506701	     76.80923010	     21.79337727	     -8.92161223	     49.56110438	     18.75358452	     69.63638053
      1.73333330	      2.09846284	     12.14802134	      8.85137193	     -0.02949473	      1.24083854	      0.10913388	    -11.90230997	    -12.42064838	      4.52418688	      0.15199535	      0.00265282	     16.61052970	     -1.55293973	     -7.49999987	     -4.94722263	      8.45617348	     21.35597955	      0.35386845	      0.00617617	    -21.95758703	    -34.61537687	     -7.49999987	    -19.91135135	    -15.90976896	      4.08540938	      1.29607887	      0.12051168	      3.46144243	     27.41085061	     76.32901353	     21.74283162	     -8.94888497	     49.61547907	     18.81465923	     69.40294385
      1.75000000	      2.17064726	     12.07637155	      8.82634335	     -0.03062172	      1.23798130	      0.10867530	    -12.01487287	    -12.35269767	      4.45024358	      0.15342357	      0.00267775	     16.64602567	     -1.45218996	     -7.49999987	     -4.96341004	      8.37694436	     21.37889456	      0.34404513	      0.00600472	    -21.84078697	    -34.61664162	     -7.49999987	    -20.09886816	    -15.73307064	      3.92533679	      1.41896579	      0.10465356	      3.41204987	     27.39407354	     74.17721302	     21.57431051	     -9.04330379	     48.93367768	     19.38687351	     67.97794978
      1.76666670	      2.15511399	     12.04262986	      8.87854473	     -0.03067353	      1.23979737	      0.10857721	    -12.06868508	    -12.28521282	      4.45851751	      0.15625211	      0.00272711	     16.74556017	     -1.46735447	     -7.49999987	     -4.94510067	      8.34731624	     21.49083728	      0.34691374	      0.00605479	    -21.76044054	    -34.61802550	     -7.49999987	    -20.08699132	    -15.71507725	      3.96042677	      1.38068961	     -0.07662658	      4.05174303	     27.48685837	     75.51334850	     21.79852748	     -9.02310744	     50.25981246	     18.99397091	     69.15554437
      1.78333330	      2.00502317	     12.03948969	      8.94691910	     -0.02983883	      1.24155336	      0.10882463	    -11.97659937	    -12.29994254	      4.72146489	      0.15706867	      0.00274137	     16.66105175	     -1.81251178	     -7.49999987	     -4.81300522	      8.34087609	     21.62308464	      0.34515477	      0.00602409	    -21.77196712	    -34.61747294	     -7.49999987	    -19.92867931	    -15.72779539	      3.87763501	      1.28553025	     -0.01079375	      4.09683084	     27.62588892	     73.91769935	     21.62771788	     -9.02312423	     49.59983251	     19.03686455	     68.06469660
      1.80000000	      2.09023651	     11.97052983	      8.95671249	     -0.03183660	      1.24449767	      0.11026900	    -12.06736015	    -12.19622221	      4.57340974	      0.15771234	      0.00275260	     16.72923211	     -1.49236035	     -7.49999987	     -4.87176976	      8.20442645	     21.63418398	      0.33551790	      0.00585589	    -21.76206243	    -34.61485731	     -7.49999987	    -20.09910617	    -15.64425653	      3.98207422	      1.40599933	     -0.07564360	      4.13808436	     27.46987375	     74.69149408	     21.80199839	     -9.04629984	     50.20070635	     19.10601378	     68.69161756
      1.81666670	      2.03103446	     11.86662543	      8.89287266	     -0.03334020	      1.24650975	      0.11013387	    -11.91713040	    -12.09073568	      5.03431216	      0.15709849	      0.00274189	     16.25991689	     -2.22400559	     -7.49999987	     -4.75313868	      8.07284166	     21.53251643	      0.32780001	      0.00572119	    -21.80694748	    -34.61321812	     -7.49999987	    -20.12368267	    -15.57461341	      4.09613652	      1.56304628	     -0.07766133	      4.06014308	     27.20107434	     74.14927971	     21.78897367	     -8.96706744	     49.74643502	     19.09296826	     68.24493137
      1.83333330	      1.98683409	     11.83425755	      8.93439618	     -0.03508093	      1.24700631	      0.11039515	    -11.78468754	    -12.04015402	      5.04998257	      0.15735548	      0.00274637	     16.15046766	     -2.22562175	     -7.49999987	     -4.65234899	      8.02533069	     21.63387016	      0.31766485	      0.00554430	    -21.84389544	    -34.60661109	     -7.49999987	    -20.22830073	    -15.51780104	      3.89116025	      1.55869465	     -0.10003040	      4.44450309	     27.57026289	     72.79519851	     21.78064389	     -8.96367205	     49.35524211	     18.96108351	     67.41750018
      1.85000000	      1.90865689	     11.79766290	      8.99795894	     -0.03538285	      1.24463928	      0.11051004	    -11.61666268	    -12.00401032	      4.74257468	      0.15720284	      0.00274371	     16.21481801	     -1.71244013	     -7.49999987	     -4.51111773	      7.98691975	     21.69600809	      0.31105867	      0.00542900	    -21.89637888	    -34.60799979	     -7.49999987	    -20.21710980	    -15.45896319	      3.86494705	      1.58981281	     -0.18458830	      4.92020689	     27.55586157	     71.93600417	     21.82037810	     -8.98149446	     49.71380701	     19.02686904	     67.07627083
      1.86666670	      1.95928386	     11.75853809	      8.91610604	     -0.03514369	      1.24394764	      0.11161044	    -11.55427843	    -11.96003019	      4.82269804	      0.15662579	      0.00273364	     16.09317585	     -1.70653461	     -7.49999987	     -4.50659926	      7.91342639	     21.61812713	      0.30306381	      0.00528946	    -21.85735294	    -34.60561838	     -7.49999987	    -20.40742063	    -15.40964278	      4.14274088	      1.56803865	     -0.04212175	      2.75261017	     27.50724780	     78.94758612	     22.02459284	     -8.90594639	     49.69836263	     19.05141997	     71.50216585
      1.88333330	      1.95465800	     11.68269482	      8.88357792	     -0.03668896	      1.24526353	      0.11285148	    -11.45593963	    -11.84966466	      4.80034835	      0.15715009	      0.00274279	     15.93058050	     -1.77549609	     -7.49999987	     -4.43341898	      7.80085577	     21.57763578	      0.29666642	      0.00517781	    -21.82790019	    -34.60502155	     -7.49999987	    -20.50512008	    -15.32860037	      4.14667097	      1.71595161	     -0.17456815	      3.46225415	     27.43374202	     77.14577646	     22.00231148	     -8.85307174	     49.54172002	     19.04109600	     70.43017323
      1.90000000	      1.95497747	     11.61676069	      8.91412293	     -0.03608579	      1.24246130	      0.11360780	    -11.43721841	    -11.71320464	      4.95587128	      0.15716313	      0.00274301	     15.68648179	     -2.19244700	     -7.49999987	     -4.41610725	      7.65952840	     21.55217921	      0.29613839	      0.00516859	    -21.81128461	    -34.60700717	     -7.49999987	    -20.60252246	    -15.24214127	      3.95870394	      1.80330616	     -0.22772140	      3.93844771	     27.56993281	     74.79918480	     21.90625262	     -8.90228887	     49.18473778	     19.09231586	     68.96221644
      1.91666670	      1.91576562	     11.61060241	      8.98369017	     -0.03550257	      1.23883069	      0.11472185	    -11.43139750	    -11.60661956	      4.78099712	      0.15981653	      0.00278932	     15.81859191	     -1.95967201	     -7.49999987	     -4.39201615	      7.59159257	     21.61947121	      0.29795728	      0.00520034	    -21.64718367	    -34.60563837	     -7.49999987	    -20.60744528	    -15.26733160	      4.00736870	      1.76939776	     -0.26910226	      4.24860022	     27.50938800	     74.54379726	     21.92706413	     -8.92208979	     49.68441166	     19.14505091	     68.94947205
      1.93333330	      1.84924722	     11.62430031	      9.07613288	     -0.03387604	      1.24094451	      0.11594666	    -11.42232461	    -11.54159705	      4.70912468	      0.16141847	      0.00281728	     15.79584182	     -1.96575128	     -7.49999987	     -4.37600642	      7.52501361	     21.69453772	      0.29895888	      0.00521782	    -21.63606067	    -34.60508044	     -7.49999987	    -20.53680235	    -15.28300582	      4.03221509	      1.67360666	     -0.36606941	      4.52438364	     27.57380975	     73.69930535	     21.82315550	     -8.96738080	     49.81263430	     19.19235677	     68.46408496
      1.95000000	      1.74388720	     11.57576738	      9.15752100	     -0.03820297	      1.24047467	      0.11716806	    -11.27343946	    -11.40981579	      4.79457954	      0.16370461	      0.00285718	     15.66786911	     -2.18707382	     -7.49999987	     -4.24756383	      7.39049846	     21.71994796	      0.29971199	      0.00523096	    -21.56844432	    -34.60377326	     -7.49999987	    -20.53194262	    -15.28275172	      4.17535364	      1.63637283	     -0.35200774	      3.92694145	     27.57937633	     76.39538083	     21.99775770	     -9.01087466	     50.56686460	     19.27748268	     70.48382516
